<mxfile host="app.diagrams.net" agent="Mozilla/5.0 (Windows NT 10.0; Win64; x64) AppleWebKit/537.36 (KHTML, like Gecko) Chrome/139.0.0.0 Safari/537.36 Edg/139.0.0.0" version="28.1.2">
  <diagram name="第 1 页" id="N73GxZcquzNQffALaFUc">
    <mxGraphModel dx="776" dy="1138" grid="1" gridSize="10" guides="1" tooltips="1" connect="1" arrows="1" fold="1" page="1" pageScale="1" pageWidth="5000" pageHeight="5000" math="0" shadow="0">
      <root>
        <mxCell id="0" />
        <mxCell id="1" parent="0" />
        <mxCell id="U1itV3pcsn0U4IYnOVVN-28" style="edgeStyle=orthogonalEdgeStyle;rounded=0;orthogonalLoop=1;jettySize=auto;html=1;entryX=0.5;entryY=0;entryDx=0;entryDy=0;fontSize=16;" edge="1" parent="1" source="U1itV3pcsn0U4IYnOVVN-1" target="U1itV3pcsn0U4IYnOVVN-2">
          <mxGeometry relative="1" as="geometry" />
        </mxCell>
        <mxCell id="U1itV3pcsn0U4IYnOVVN-1" value="开始" style="rounded=1;whiteSpace=wrap;html=1;fontSize=16;" vertex="1" parent="1">
          <mxGeometry x="200" y="80" width="120" height="40" as="geometry" />
        </mxCell>
        <mxCell id="U1itV3pcsn0U4IYnOVVN-29" style="edgeStyle=orthogonalEdgeStyle;rounded=0;orthogonalLoop=1;jettySize=auto;html=1;entryX=0.5;entryY=0;entryDx=0;entryDy=0;fontSize=16;" edge="1" parent="1" source="U1itV3pcsn0U4IYnOVVN-2" target="U1itV3pcsn0U4IYnOVVN-5">
          <mxGeometry relative="1" as="geometry" />
        </mxCell>
        <mxCell id="U1itV3pcsn0U4IYnOVVN-2" value="填写用户名及密码以及确认密码" style="rounded=0;whiteSpace=wrap;html=1;fontSize=16;" vertex="1" parent="1">
          <mxGeometry x="200" y="160" width="120" height="40" as="geometry" />
        </mxCell>
        <mxCell id="U1itV3pcsn0U4IYnOVVN-7" style="edgeStyle=orthogonalEdgeStyle;rounded=0;orthogonalLoop=1;jettySize=auto;html=1;entryX=0.5;entryY=0;entryDx=0;entryDy=0;fontSize=16;" edge="1" parent="1" source="U1itV3pcsn0U4IYnOVVN-5" target="U1itV3pcsn0U4IYnOVVN-6">
          <mxGeometry relative="1" as="geometry" />
        </mxCell>
        <mxCell id="U1itV3pcsn0U4IYnOVVN-17" value="是" style="edgeLabel;html=1;align=center;verticalAlign=middle;resizable=0;points=[];fontSize=16;" vertex="1" connectable="0" parent="U1itV3pcsn0U4IYnOVVN-7">
          <mxGeometry x="-0.5" y="-1" relative="1" as="geometry">
            <mxPoint as="offset" />
          </mxGeometry>
        </mxCell>
        <mxCell id="U1itV3pcsn0U4IYnOVVN-14" style="edgeStyle=orthogonalEdgeStyle;rounded=0;orthogonalLoop=1;jettySize=auto;html=1;entryX=0;entryY=0.5;entryDx=0;entryDy=0;fontSize=16;" edge="1" parent="1" source="U1itV3pcsn0U4IYnOVVN-5" target="U1itV3pcsn0U4IYnOVVN-2">
          <mxGeometry relative="1" as="geometry">
            <Array as="points">
              <mxPoint x="145" y="260" />
              <mxPoint x="145" y="180" />
            </Array>
          </mxGeometry>
        </mxCell>
        <mxCell id="U1itV3pcsn0U4IYnOVVN-15" value="否" style="edgeLabel;html=1;align=center;verticalAlign=middle;resizable=0;points=[];fontSize=16;" vertex="1" connectable="0" parent="U1itV3pcsn0U4IYnOVVN-14">
          <mxGeometry x="-0.2" relative="1" as="geometry">
            <mxPoint as="offset" />
          </mxGeometry>
        </mxCell>
        <mxCell id="U1itV3pcsn0U4IYnOVVN-5" value="两次密码是否一致？" style="rhombus;whiteSpace=wrap;html=1;fontSize=16;" vertex="1" parent="1">
          <mxGeometry x="165" y="240" width="190" height="40" as="geometry" />
        </mxCell>
        <mxCell id="U1itV3pcsn0U4IYnOVVN-11" style="edgeStyle=orthogonalEdgeStyle;rounded=0;orthogonalLoop=1;jettySize=auto;html=1;entryX=0.5;entryY=0;entryDx=0;entryDy=0;fontSize=16;" edge="1" parent="1" source="U1itV3pcsn0U4IYnOVVN-6" target="U1itV3pcsn0U4IYnOVVN-10">
          <mxGeometry relative="1" as="geometry" />
        </mxCell>
        <mxCell id="U1itV3pcsn0U4IYnOVVN-18" value="是" style="edgeLabel;html=1;align=center;verticalAlign=middle;resizable=0;points=[];fontSize=16;" vertex="1" connectable="0" parent="U1itV3pcsn0U4IYnOVVN-11">
          <mxGeometry x="-0.2" y="2" relative="1" as="geometry">
            <mxPoint as="offset" />
          </mxGeometry>
        </mxCell>
        <mxCell id="U1itV3pcsn0U4IYnOVVN-6" value="填写邮箱接受验证码" style="rounded=0;whiteSpace=wrap;html=1;fontSize=16;" vertex="1" parent="1">
          <mxGeometry x="200" y="320" width="120" height="40" as="geometry" />
        </mxCell>
        <mxCell id="U1itV3pcsn0U4IYnOVVN-12" style="edgeStyle=orthogonalEdgeStyle;rounded=0;orthogonalLoop=1;jettySize=auto;html=1;entryX=0;entryY=0.5;entryDx=0;entryDy=0;fontSize=16;" edge="1" parent="1" source="U1itV3pcsn0U4IYnOVVN-10" target="U1itV3pcsn0U4IYnOVVN-6">
          <mxGeometry relative="1" as="geometry">
            <Array as="points">
              <mxPoint x="145" y="420" />
              <mxPoint x="145" y="340" />
            </Array>
          </mxGeometry>
        </mxCell>
        <mxCell id="U1itV3pcsn0U4IYnOVVN-16" value="否" style="edgeLabel;html=1;align=center;verticalAlign=middle;resizable=0;points=[];fontSize=16;" vertex="1" connectable="0" parent="U1itV3pcsn0U4IYnOVVN-12">
          <mxGeometry x="-0.2129" y="-1" relative="1" as="geometry">
            <mxPoint as="offset" />
          </mxGeometry>
        </mxCell>
        <mxCell id="U1itV3pcsn0U4IYnOVVN-22" style="edgeStyle=orthogonalEdgeStyle;rounded=0;orthogonalLoop=1;jettySize=auto;html=1;entryX=0;entryY=0.5;entryDx=0;entryDy=0;fontSize=16;" edge="1" parent="1" source="U1itV3pcsn0U4IYnOVVN-10" target="U1itV3pcsn0U4IYnOVVN-20">
          <mxGeometry relative="1" as="geometry">
            <Array as="points">
              <mxPoint x="370" y="420" />
              <mxPoint x="370" y="100" />
            </Array>
          </mxGeometry>
        </mxCell>
        <mxCell id="U1itV3pcsn0U4IYnOVVN-23" value="是" style="edgeLabel;html=1;align=center;verticalAlign=middle;resizable=0;points=[];fontSize=16;" vertex="1" connectable="0" parent="U1itV3pcsn0U4IYnOVVN-22">
          <mxGeometry x="-0.0137" y="-2" relative="1" as="geometry">
            <mxPoint as="offset" />
          </mxGeometry>
        </mxCell>
        <mxCell id="U1itV3pcsn0U4IYnOVVN-10" value="验证码受否正确" style="rhombus;whiteSpace=wrap;html=1;fontSize=16;" vertex="1" parent="1">
          <mxGeometry x="165" y="400" width="190" height="40" as="geometry" />
        </mxCell>
        <mxCell id="U1itV3pcsn0U4IYnOVVN-24" style="edgeStyle=orthogonalEdgeStyle;rounded=0;orthogonalLoop=1;jettySize=auto;html=1;entryX=0.5;entryY=0;entryDx=0;entryDy=0;fontSize=16;" edge="1" parent="1" source="U1itV3pcsn0U4IYnOVVN-20" target="U1itV3pcsn0U4IYnOVVN-21">
          <mxGeometry relative="1" as="geometry" />
        </mxCell>
        <mxCell id="U1itV3pcsn0U4IYnOVVN-20" value="创建用户记录" style="rounded=0;whiteSpace=wrap;html=1;fontSize=16;" vertex="1" parent="1">
          <mxGeometry x="400" y="80" width="120" height="40" as="geometry" />
        </mxCell>
        <mxCell id="U1itV3pcsn0U4IYnOVVN-27" value="" style="edgeStyle=orthogonalEdgeStyle;rounded=0;orthogonalLoop=1;jettySize=auto;html=1;fontSize=16;" edge="1" parent="1" source="U1itV3pcsn0U4IYnOVVN-21" target="U1itV3pcsn0U4IYnOVVN-25">
          <mxGeometry relative="1" as="geometry" />
        </mxCell>
        <mxCell id="U1itV3pcsn0U4IYnOVVN-21" value="下发token" style="rounded=0;whiteSpace=wrap;html=1;fontSize=16;" vertex="1" parent="1">
          <mxGeometry x="400" y="160" width="120" height="40" as="geometry" />
        </mxCell>
        <mxCell id="U1itV3pcsn0U4IYnOVVN-25" value="结束" style="rounded=1;whiteSpace=wrap;html=1;fontSize=16;" vertex="1" parent="1">
          <mxGeometry x="400" y="240" width="120" height="40" as="geometry" />
        </mxCell>
      </root>
    </mxGraphModel>
  </diagram>
</mxfile>
